HIERARCHY
ROOT Hips
{
	OFFSET -3.958830 18.904000 13.208200
	CHANNELS 6 Xposition Yposition Zposition Zrotation Yrotation Xrotation 
	JOINT LHipJoint
	{
		OFFSET 0.000000 0.000000 0.000000
		CHANNELS 3 Zrotation Yrotation Xrotation
		JOINT LeftUpLeg
		{
			OFFSET 1.800000 -1.400000 0.085000
			CHANNELS 3 Zrotation Yrotation Xrotation
			JOINT LeftLeg
			{
				OFFSET 2.215000 -6.000000 0.000000
				CHANNELS 3 Zrotation Yrotation Xrotation
				JOINT LeftFoot
				{
					OFFSET 2.500000 -6.900000 0.000000
					CHANNELS 3 Zrotation Yrotation Xrotation
					JOINT LeftToeBase
					{
						OFFSET 0.200000 -0.500000 1.950000
						CHANNELS 3 Zrotation Yrotation Xrotation
						End Site
						{
							OFFSET 0.000000 0.000000 0.000000
						}
					}
				}
			}
		}
	}
	JOINT RHipJoint
	{
		OFFSET 0.000000 0.000000 0.000000
		CHANNELS 3 Zrotation Yrotation Xrotation
		JOINT RightUpLeg
		{
			OFFSET -1.800000 -1.400000 0.085000
			CHANNELS 3 Zrotation Yrotation Xrotation
			JOINT RightLeg
			{
				OFFSET -2.215000 -6.000000 0.000000
				CHANNELS 3 Zrotation Yrotation Xrotation
				JOINT RightFoot
				{
					OFFSET -2.500000 -6.900000 0.000000
					CHANNELS 3 Zrotation Yrotation Xrotation
					JOINT RightToeBase
					{
						OFFSET -0.200000 -0.500000 1.950000
						CHANNELS 3 Zrotation Yrotation Xrotation
						End Site
						{
							OFFSET 0.000000 0.000000 0.000000
						}
					}
				}
			}
		}
	}
	JOINT LowerBack
	{
		OFFSET 0.000000 0.000000 0.000000
		CHANNELS 3 Zrotation Yrotation Xrotation
		JOINT Spine
		{
			OFFSET -0.087000 1.940000 -0.288900
			CHANNELS 3 Zrotation Yrotation Xrotation
			JOINT Spine1
			{
				OFFSET 0.000000 1.950000 0.060000
				CHANNELS 3 Zrotation Yrotation Xrotation
				JOINT Neck
				{
					OFFSET 0.000000 0.000000 0.000000
					CHANNELS 3 Zrotation Yrotation Xrotation
					JOINT Neck1
					{
						OFFSET 0.000000 1.600000 0.340000
						CHANNELS 3 Zrotation Yrotation Xrotation
						JOINT Head
						{
							OFFSET 0.000000 1.667000 -0.240000
							CHANNELS 3 Zrotation Yrotation Xrotation
							End Site
							{
								OFFSET 0.000000 0.000000 0.000000
							}
						}
					}
				}
				JOINT LeftShoulder
				{
					OFFSET 0.000000 0.000000 0.000000
					CHANNELS 3 Zrotation Yrotation Xrotation
					JOINT LeftArm
					{
						OFFSET 2.700000 1.550000 -0.730000
						CHANNELS 3 Zrotation Yrotation Xrotation
						JOINT LeftForeArm
						{
							OFFSET 5.450000 0.000000 0.000000
							CHANNELS 3 Zrotation Yrotation Xrotation
							JOINT LeftHand
							{
								OFFSET 3.450000 0.000000 0.000000
								CHANNELS 3 Zrotation Yrotation Xrotation
								JOINT LeftHandIndex1
								{
									OFFSET 0.750000 0.000000 0.000000
									CHANNELS 3 Zrotation Yrotation Xrotation
									End Site
									{
										OFFSET 0.000000 0.000000 0.000000
									}
								}
							}
						}
					}
				}
				JOINT RightShoulder
				{
					OFFSET 0.000000 0.000000 0.000000
					CHANNELS 3 Zrotation Yrotation Xrotation
					JOINT RightArm
					{
						OFFSET -2.700000 1.550000 -0.730000
						CHANNELS 3 Zrotation Yrotation Xrotation
						JOINT RightForeArm
						{
							OFFSET -5.450000 0.000000 0.000000
							CHANNELS 3 Zrotation Yrotation Xrotation
							JOINT RightHand
							{
								OFFSET -3.450000 0.000000 0.000000
								CHANNELS 3 Zrotation Yrotation Xrotation
								JOINT RightHandIndex1
								{
									OFFSET -0.750000 0.000000 0.000000
									CHANNELS 3 Zrotation Yrotation Xrotation
									End Site
									{
										OFFSET 0.000000 0.000000 0.000000
									}
								}
							}
						}
					}
				}
			}
		}
	}
}
MOTION
Frames: 6
Frame Time: 0.016667
-0.824920 16.928320 -1.744610 3.954326 -1.472367 1.967629 -15.070201 11.620827 4.504004 19.259250 -5.249477 -28.162886 -24.669861 15.189218 29.422246 0.305727 8.586013 1.326105 0.560090 0.431150 0.445120 18.618106 -9.088480 3.613169 -24.305815 3.699241 -37.905855 13.160722 -16.630222 45.129133 -1.206079 -8.060889 1.267941 0.128030 -0.099020 0.379610 -4.240399 -2.170527 -8.883951 31.689576 -8.382397 28.359475 -7.919635 0.190609 2.900617 5.520301 -7.100249 -10.614643 -17.758907 2.616501 41.969831 -10.974740 -0.550180 -20.477120 -26.652797 -14.076238 1.635136 -36.626980 -12.198791 -4.129880 -56.186233 -43.647763 18.891359 -3.502539 3.303986 0.666720 -0.131160 0.406750 0.119630 14.813154 19.779893 8.775647 43.711337 4.108216 -11.938916 50.397113 44.004773 13.051856 2.213860 -1.613700 0.068420 0.141790 -0.065100 -0.115950 
-0.834310 16.921110 -1.746860 4.095384 -1.469702 1.526920 -15.079362 11.669912 4.500572 19.389830 -5.219109 -27.731870 -24.844644 15.300982 29.475366 0.300074 8.652390 1.307974 0.556030 0.417610 0.444760 18.603155 -9.083074 3.583552 -24.445966 3.630795 -37.564299 13.095832 -16.705079 45.360964 -1.216090 -8.088551 1.262802 0.126980 -0.093690 0.364390 -4.205755 -2.278685 -8.876472 31.850356 -8.536237 28.724114 -7.700025 0.139977 2.973599 5.530533 -7.351015 -10.835499 -18.567768 2.977127 42.420442 -10.469550 -0.831670 -20.899040 -26.745400 -14.421706 1.730718 -37.021534 -12.265389 -4.280287 -55.787365 -43.651374 18.580012 -3.491802 3.271791 0.692280 -0.143730 0.405210 0.116670 14.944419 20.284275 9.012834 43.451441 3.771943 -12.269766 50.246298 44.346528 13.088841 2.202457 -1.586441 0.048430 0.168690 -0.054650 -0.123740 
-0.849020 16.913850 -1.746510 4.465428 -1.383851 0.771367 -15.088318 11.763754 4.476531 19.422301 -5.212918 -26.844362 -25.063804 15.424782 29.527154 0.296071 8.729210 1.285795 0.549390 0.397900 0.455450 18.579980 -9.099986 3.530943 -24.676531 3.413911 -37.031924 12.764526 -16.781664 45.828226 -1.233475 -8.127244 1.246692 0.121440 -0.096670 0.348720 -4.158369 -2.433105 -8.855875 32.057805 -8.874747 29.179168 -7.581855 -0.095804 3.097734 5.669360 -7.627831 -11.126826 -19.605833 3.393687 43.300568 -10.299280 -1.185250 -21.650660 -27.143116 -14.963151 1.904103 -37.284901 -12.174304 -4.583900 -55.246108 -43.866877 18.277046 -3.475125 3.227154 0.727810 -0.164810 0.412590 0.104400 15.140590 20.993965 9.277836 43.212231 3.607789 -12.611454 49.874122 44.441416 12.933064 2.196306 -1.540794 0.026950 0.202100 -0.039190 -0.136700 
-0.863710 16.900500 -1.744500 4.818763 -1.244284 0.294056 -15.090819 11.798801 4.437411 19.448905 -5.202651 -26.219122 -25.143765 15.551836 29.680497 0.285142 8.804691 1.263962 0.538120 0.376350 0.453520 18.577962 -9.087201 3.524390 -25.098838 3.188261 -36.915297 12.708152 -17.091033 46.394658 -1.258013 -8.242969 1.208609 0.119720 -0.089560 0.336060 -4.151140 -2.517601 -8.835810 32.545378 -9.175847 29.136815 -7.582309 -0.343179 3.089317 5.711842 -7.920611 -11.197726 -20.420656 3.734253 43.442009 -10.060850 -1.434980 -22.251030 -27.561845 -15.106687 1.915534 -37.642217 -12.235623 -4.608149 -54.938292 -43.888816 18.089997 -3.471869 3.192718 0.753810 -0.174460 0.410450 0.096450 15.496246 21.208305 9.355435 43.119772 3.551645 -12.714096 49.615973 44.554952 12.918558 2.187625 -1.507139 0.002600 0.231230 -0.021250 -0.146590 
-0.882720 16.886210 -1.737930 5.143149 -1.194513 -0.101120 -15.087874 11.815745 4.411652 19.572436 -5.154516 -25.599708 -25.377687 15.730646 29.726319 0.261638 8.912506 1.236828 0.522560 0.336340 0.461200 18.582076 -9.102139 3.492752 -25.210921 3.010884 -36.848706 12.185228 -17.177996 47.064204 -1.267710 -8.312121 1.186703 0.115870 -0.074030 0.321110 -4.160868 -2.537109 -8.807909 32.976157 -9.352063 28.818167 -7.600797 -0.563394 3.131959 5.700288 -8.140733 -11.152781 -20.890168 3.876179 43.227751 -9.952570 -1.601890 -22.810550 -27.703757 -15.025374 1.877233 -38.073705 -12.374915 -4.483247 -54.992669 -44.006760 18.132605 -3.483670 3.147906 0.787890 -0.177570 0.397870 0.084070 15.658216 21.134712 9.321208 43.388226 3.699620 -12.699029 49.669286 44.686193 13.039618 2.174157 -1.472481 -0.037940 0.268110 0.002620 -0.168930 
-0.902250 16.877620 -1.723520 5.415310 -1.014416 -0.381638 -15.083697 11.835921 4.382130 19.686531 -5.089368 -25.066438 -25.473898 15.851057 29.744996 0.273725 8.959048 1.227148 0.512940 0.325270 0.445040 18.587479 -9.122254 3.454915 -25.279228 2.768978 -36.707610 11.764436 -17.294024 47.599402 -1.272979 -8.391840 1.167026 0.112060 -0.062080 0.313480 -4.174620 -2.561256 -8.772418 33.341318 -9.453696 28.029554 -7.378222 -0.874171 3.183478 5.569798 -8.448392 -11.203682 -21.494496 4.057024 42.742186 -9.748840 -1.697820 -22.492900 -27.874491 -14.973627 2.016979 -38.777769 -12.198755 -4.474036 -55.069343 -44.268034 18.229924 -3.484749 3.153152 0.782490 -0.173120 0.381700 0.084530 16.118716 21.151274 9.344033 43.405024 3.612881 -12.625345 49.754259 44.657280 13.099167 2.171553 -1.476546 -0.044190 0.270420 0.010100 -0.166240 
